<?xml version="1.0" encoding="UTF-8" standalone="no"?>
<svg
   xmlns:dc="http://purl.org/dc/elements/1.1/"
   xmlns:cc="http://creativecommons.org/ns#"
   xmlns:rdf="http://www.w3.org/1999/02/22-rdf-syntax-ns#"
   xmlns:svg="http://www.w3.org/2000/svg"
   xmlns="http://www.w3.org/2000/svg"
   xmlns:sodipodi="http://sodipodi.sourceforge.net/DTD/sodipodi-0.dtd"
   xmlns:inkscape="http://www.inkscape.org/namespaces/inkscape"
   version="1.1"
   id="svg2"
   xml:space="preserve"
   width="3332.9067"
   height="2793.3333"
   viewBox="0 0 3332.9067 2793.3333"
   sodipodi:docname="reddit-seeklogo.com.eps"><metadata
     id="metadata8"><rdf:RDF><cc:Work
         rdf:about=""><dc:format>image/svg+xml</dc:format><dc:type
           rdf:resource="http://purl.org/dc/dcmitype/StillImage" /></cc:Work></rdf:RDF></metadata><defs
     id="defs6" /><sodipodi:namedview
     pagecolor="#ffffff"
     bordercolor="#666666"
     borderopacity="1"
     objecttolerance="10"
     gridtolerance="10"
     guidetolerance="10"
     inkscape:pageopacity="0"
     inkscape:pageshadow="2"
     inkscape:window-width="640"
     inkscape:window-height="480"
     id="namedview4" /><g
     id="g10"
     inkscape:groupmode="layer"
     inkscape:label="ink_ext_XXXXXX"
     transform="matrix(1.3333333,0,0,-1.3333333,0,2793.3333)"><g
       id="g12"
       transform="scale(0.1)"><path
         d="m 20317.2,12178.7 c 813.8,1020.7 2301,1188.3 3321.6,374.4 562.3,-448.3 889.9,-1128.2 890,-1847.4 0,-975.6 -599.1,-1851 -1508.5,-2204.4 M 1880.73,8540.6 C 1021.5,8917.7 466.711,9767.4 467.027,10705.7 c -0.793,1305.2 1056.593,2363.8 2361.733,2364.6 698.73,0.5 1361.84,-308.4 1811.17,-843.5 M 23152,7454.7 C 23152,3596.1 18358.9,467.5 12446.8,467.5 6534.21,467.5 1741.55,3595.7 1741.55,7454.7 c 0,3858.6 4792.66,6987.2 10705.25,6987.2 5912.1,0 10705.2,-3128.1 10705.2,-6987.2 z m -308.7,11164.8 c 0.4,-1029.1 -833.6,-1863.7 -1862.7,-1864.1 -1029.2,-0.4 -1863.8,833.6 -1864.2,1862.8 0,0.4 0,0.9 0,1.3 23.1,1029.2 876.1,1844.8 1905.2,1821.7 996.7,-22.3 1799.4,-825 1821.7,-1821.7 z m -3792.2,382.5 -4727.3,1112.5 -1835.4,-5602.5 1835.9,5602.5 M 16196.6,4237.4 c -933.6,-932.7 -2437,-1112.5 -3699.4,-1112.5 -1260.9,0 -2765.71,179.8 -3697.9,1112.5"
         style="fill:#ffffff;fill-opacity:1;fill-rule:nonzero;stroke:none"
         id="path14" /><path
         d="m 12497.2,2658.3 c -1870.4,0 -3188.37,408.7 -4028.56,1249.3 -182.36,182.5 -182.25,478.3 0.24,660.7 182.49,182.3 478.25,182.2 660.61,-0.3 656.18,-656.2 1757.41,-975.6 3367.71,-975.6 1609.9,0 2712.1,319.4 3369.2,975.6 182.3,182.2 477.9,182.1 660.1,-0.2 182.3,-182.4 182.2,-477.9 -0.2,-660.2 v 0 C 15685.2,3067 14367.7,2658.3 12497.2,2658.3 Z m 8482.2,17358.1 c -769.6,0 -1396.4,-626.7 -1396.4,-1396.9 0,-770.1 626.8,-1396.4 1396.4,-1396.4 769.7,0 1396.4,626.3 1396.4,1396.4 0,770.2 -626.2,1396.9 -1396.4,1396.9 z M 2830.2,12602.3 C 1783.34,12601 935.09,11752.6 934.063,10705.7 c 0,-566.5 252.197,-1092.8 670.647,-1447.8 419.86,1123.2 1222.69,2146.5 2309.93,3004.4 -318.29,221.4 -696.73,340.1 -1084.44,340 z M 21028,12223.1 c 1083,-866.3 1877.9,-1898 2284.2,-3030.1 474.5,357.8 752.4,918.5 749.6,1512.7 -1,1047.1 -849.6,1895.6 -1896.6,1896.6 -410.2,0.6 -809.4,-132.5 -1137.2,-379.2 z M 2301.52,8337.9 c -62.09,-290.5 -93.4,-586.6 -93.41,-883.6 0,-3595.7 4592.77,-6520.198 10238.19,-6520.198 5645.5,0 10238.2,2924.998 10238.2,6520.198 0,285.8 -28.9,567.4 -85.4,843.9 -30.5,63.4 -46.3,132.8 -46.3,203.1 -312.4,1226.9 -1164.7,2340.8 -2395.8,3238.4 -78.4,28.5 -147.6,77.5 -200.4,142 -1871.4,1286.7 -4545.1,2093.2 -7510.3,2093.2 -2935.25,0 -5586.11,-790.7 -7454.69,-2055.4 -50.97,-57.9 -115.23,-102.6 -187.28,-130.3 -1257.71,-898.1 -2131.99,-2019.4 -2456.57,-3257 -0.98,-61.8 -14.32,-122.8 -39.23,-179.4 -2.34,-5.1 -4.21,-10.3 -7.01,-14.9 z M 12446.3,0 C 6285.75,0 1274.06,3343.9 1274.06,7454.3 c 0,283.9 23.81,565.1 70.52,841.1 C 508.855,8811.4 0.0546875,9723.5 -0.00390625,10705.7 1.80078,12268.1 1267.8,13534.3 2830.2,13536.4 c 697.27,0 1361.85,-255 1876.05,-710.8 1937.71,1243.7 4544.2,2026.4 7419.65,2080.6 l 1887.8,5761.2 411.9,-97.1 9.8,-2.3 4399.9,-1035.9 c 366.9,859 1210.5,1416.8 2144.6,1417.9 1286.6,-1.5 2329.2,-1044.3 2330.5,-2330.9 -1.6,-1286.5 -1044.1,-2329 -2330.5,-2330.5 -1285.5,1.3 -2327.7,1042.2 -2330.5,2327.7 l -4014.6,945.2 -1528.6,-4665.6 c 2770.9,-107.9 5273.3,-893 7141.4,-2109.6 521.9,483.3 1207.3,751.1 1918.5,749.6 1562.6,-1.8 2828.9,-1268.1 2830.7,-2830.7 4.6,-1022.3 -546.2,-1966.6 -1438.4,-2465.9 40.6,-258.2 61.6,-519.8 61.6,-785 C 23619.1,3343.9 18606.9,0 12446.3,0 v 0"
         style="fill:#100f0d;fill-opacity:1;fill-rule:nonzero;stroke:none"
         id="path16" /><path
         d="m 8738.12,10560.9 c -950.88,0 -1749.03,-798.1 -1749.03,-1749 0,-950.9 797.69,-1722.4 1749.03,-1722.4 951.34,0 1722.38,771.5 1722.38,1722.4 0,950.9 -771.51,1749 -1722.38,1749 z m 7546.28,0 c -951.8,0 -1750.9,-797.2 -1750.9,-1749 0,-951.3 799.1,-1722.4 1750.9,-1722.4 951.8,0 1722.4,771.1 1722.4,1722.4 0,951.8 -771.1,1749 -1722.4,1749 v 0"
         style="fill:#ef381f;fill-opacity:1;fill-rule:nonzero;stroke:none"
         id="path18" /></g></g></svg>
